custom-analysis
version=1
nRows=4
nColumns=98
inDegrees=no

This file contains tibia displacement and acting force.

Units are S.I. units (seconds, meters, Newtons, ...)
Angles are in degrees.

endheader
time	APT	SIT	knee_angle	aACL_R_force	pACL_R_force	aPCL_R_force	pPCL_R_force	aMCL_R_force	mMCL_R_force	pMCL_R_force	aLCL_R_force	mLCL_R_force	pLCL_R_force	aPCL_L_force	pPCL_L_force	aMCL_L_force	aLCL_L_force	aACL_R_length	pACL_R_length	aPCL_R_length	pPCL_R_length	aMCL_R_length	mMCL_R_length	pMCL_R_length	aLCL_R_length	mLCL_R_length	pLCL_R_length	aPCL_L_length	pPCL_L_length	aMCL_L_length	aLCL_L_length	aACL_R_strain	pACL_R_strain	aPCL_R_strain	pPCL_R_strain	aMCL_R_strain	mMCL_R_strain	pMCL_R_strain	aLCL_R_strain	mLCL_R_strain	pLCL_R_strain	aPCL_L_strain	pPCL_L_strain	aMCL_L_strain	aLCL_L_strain	femur_lat_meniscii_r.femur_lat_r.force.X	femur_lat_meniscii_r.femur_lat_r.force.Y	femur_lat_meniscii_r.femur_lat_r.force.Z	femur_lat_meniscii_r.femur_lat_r.torque.X	femur_lat_meniscii_r.femur_lat_r.torque.Y	femur_lat_meniscii_r.femur_lat_r.torque.Z	femur_lat_meniscii_r.meniscus_lat_r.force.X	femur_lat_meniscii_r.meniscus_lat_r.force.Y	femur_lat_meniscii_r.meniscus_lat_r.force.Z	femur_lat_meniscii_r.meniscus_lat_r.torque.X	femur_lat_meniscii_r.meniscus_lat_r.torque.Y	femur_lat_meniscii_r.meniscus_lat_r.torque.Z	femur_med_meniscii_r.femur_med_r.force.X	femur_med_meniscii_r.femur_med_r.force.Y	femur_med_meniscii_r.femur_med_r.force.Z	femur_med_meniscii_r.femur_med_r.torque.X	femur_med_meniscii_r.femur_med_r.torque.Y	femur_med_meniscii_r.femur_med_r.torque.Z	femur_med_meniscii_r.meniscus_med_r.force.X	femur_med_meniscii_r.meniscus_med_r.force.Y	femur_med_meniscii_r.meniscus_med_r.force.Z	femur_med_meniscii_r.meniscus_med_r.torque.X	femur_med_meniscii_r.meniscus_med_r.torque.Y	femur_med_meniscii_r.meniscus_med_r.torque.Z	femur_med_tibia_r.tibia_upper_r.force.X	femur_med_tibia_r.tibia_upper_r.force.Y	femur_med_tibia_r.tibia_upper_r.force.Z	femur_med_tibia_r.tibia_upper_r.torque.X	femur_med_tibia_r.tibia_upper_r.torque.Y	femur_med_tibia_r.tibia_upper_r.torque.Z	femur_med_tibia_r.femur_med_r.force.X	femur_med_tibia_r.femur_med_r.force.Y	femur_med_tibia_r.femur_med_r.force.Z	femur_med_tibia_r.femur_med_r.torque.X	femur_med_tibia_r.femur_med_r.torque.Y	femur_med_tibia_r.femur_med_r.torque.Z	femur_lat_tibia_r.tibia_upper_r.force.X	femur_lat_tibia_r.tibia_upper_r.force.Y	femur_lat_tibia_r.tibia_upper_r.force.Z	femur_lat_tibia_r.tibia_upper_r.torque.X	femur_lat_tibia_r.tibia_upper_r.torque.Y	femur_lat_tibia_r.tibia_upper_r.torque.Z	femur_lat_tibia_r.femur_lat_r.force.X	femur_lat_tibia_r.femur_lat_r.force.Y	femur_lat_tibia_r.femur_lat_r.force.Z	femur_lat_tibia_r.femur_lat_r.torque.X	femur_lat_tibia_r.femur_lat_r.torque.Y	femur_lat_tibia_r.femur_lat_r.torque.Z	femur_lat_meniscii_force_r	femur_med_meniscii_force_r	femur_lat_tibia_force_r	femur_med_tibia_force_r
      0.20839243	      0.01348239	      0.02611353	     81.24618739	      0.00000000	      0.00000000	    968.60413229	    609.53137303	     24.70658860	      9.85030010	      0.00000000	      0.00000000	      0.00000000	      0.00000000	      0.00000000	      0.00000000	      0.00000001	      0.00000000	      0.03093656	      0.02435730	      0.03719012	      0.03395574	      0.06149279	      0.05991012	      0.05653600	      0.05016910	      0.04474499	      0.03978691	      0.01525851	      0.01651186	      0.06550154	      0.04489616	     -0.00222358	     -0.02799047	      0.19600466	      0.13610716	      0.02441880	      0.00195032	     -0.03732462	     -0.10375840	     -0.20550250	     -0.23987663	      0.00000079	     -0.32847694	      0.00000060	     -0.00000086	     85.20097439	     53.13408250	      4.34585901	     -2.95706588	      1.97698776	     33.79347720	    -85.20097439	    -53.13408250	     -4.34585901	      1.38802011	     -2.32641768	      1.24007225	      0.08487558	     -0.00218515	     -0.05142310	      0.02043187	     -0.00133323	      0.03378039	     -0.08487558	      0.00218515	      0.05142310	     -0.00016236	      0.00249601	     -0.00037428	   -930.04289927	   -379.90463756	    322.83703371	     -8.51095503	     22.52495855	      2.20870843	    930.04289927	    379.90463756	   -322.83703371	    136.83432052	    -16.30491046	    374.79035699	   -347.59414399	   -154.98265472	    -95.10168802	      5.07290078	    -12.04786773	      1.10686478	    347.59414399	    154.98265472	     95.10168802	    -42.14886018	      8.52554113	    140.14494869	    100.50533941	      0.09926215	    392.28260638	   1055.23982036
      0.20851742	      0.01347792	      0.02613804	     81.31521008	      0.00000000	      0.00000000	    969.60937192	    610.37733629	     24.59397482	      9.80189454	      0.00000000	      0.00000000	      0.00000000	      0.00000000	      0.00000000	      0.00000000	      0.00000001	      0.00000000	      0.03093660	      0.02436076	      0.03719551	      0.03395999	      0.06149634	      0.05991180	      0.05653856	      0.05016227	      0.04473728	      0.03978043	      0.01525851	      0.01651186	      0.06550154	      0.04489616	     -0.00222221	     -0.02785213	      0.19617780	      0.13624927	      0.02447798	      0.00197849	     -0.03728110	     -0.10388027	     -0.20563942	     -0.24000048	      0.00000079	     -0.32847694	      0.00000060	     -0.00000086	     85.06983580	     53.35626297	      4.48333725	     -3.01842062	      1.97493133	     33.73591629	    -85.06983580	    -53.35626297	     -4.48333725	      1.39583630	     -2.32807137	      1.25480746	      0.08146632	     -0.00148091	     -0.04990067	      0.01983353	     -0.00127765	      0.03241769	     -0.08146632	      0.00148091	      0.04990067	     -0.00016110	      0.00240880	     -0.00033465	   -930.97678376	   -379.08511490	    323.72638832	     -8.49326338	     22.56713093	      2.20913892	    930.97678376	    379.08511490	   -323.72638832	    137.17465591	    -16.32456123	    375.16465143	   -347.89656025	   -154.25986686	    -95.27163275	      5.05459460	    -12.06430888	      1.09044460	    347.89656025	    154.25986686	     95.27163275	    -42.20146042	      8.53419146	    140.27190949	    100.51799876	      0.09554596	    392.30703175	   1056.04075240
      0.20855803	      0.01347644	      0.02614600	     81.33763218	      0.00000000	      0.00000000	    969.93485865	    610.64746390	     24.55848211	      9.78627689	      0.00000000	      0.00000000	      0.00000000	      0.00000000	      0.00000000	      0.00000000	      0.00000001	      0.00000000	      0.03093660	      0.02436188	      0.03719726	      0.03396138	      0.06149749	      0.05991235	      0.05653939	      0.05016006	      0.04473477	      0.03977833	      0.01525851	      0.01651186	      0.06550154	      0.04489616	     -0.00222212	     -0.02780742	      0.19623418	      0.13629563	      0.02449713	      0.00198761	     -0.03726693	     -0.10391984	     -0.20568385	     -0.24004057	      0.00000079	     -0.32847694	      0.00000060	     -0.00000086	     85.03498231	     53.45367938	      4.55212626	     -3.04860181	      1.97475681	     33.72006014	    -85.03498231	    -53.45367938	     -4.55212626	      1.39917826	     -2.32977774	      1.26048916	      0.08036453	     -0.00125668	     -0.04941140	      0.01964123	     -0.00125970	      0.03197735	     -0.08036453	      0.00125668	      0.04941140	     -0.00016069	      0.00238070	     -0.00032201	   -931.23088465	   -379.22278633	    323.82827681	     -8.49053120	     22.57285725	      2.22593289	    931.23088465	    379.22278633	   -323.82827681	    137.21558709	    -16.32790487	    375.26110165	   -347.91586260	   -154.33634570	    -95.27593569	      5.05530071	    -12.06572207	      1.09879220	    347.91586260	    154.33634570	     95.27593569	    -42.20428260	      8.53466957	    140.27677890	    100.54335338	      0.09434789	    392.35527137	   1056.34541465
      0.20857833	      0.01347570	      0.02614998	     81.34884257	      0.00000000	      0.00000000	    970.09698669	    610.78042079	     24.54131622	      9.77860375	      0.00000000	      0.00000000	      0.00000000	      0.00000000	      0.00000000	      0.00000000	      0.00000001	      0.00000000	      0.03093660	      0.02436244	      0.03719814	      0.03396207	      0.06149806	      0.05991262	      0.05653980	      0.05015895	      0.04473352	      0.03977728	      0.01525851	      0.01651186	      0.06550154	      0.04489616	     -0.00222213	     -0.02778511	      0.19626239	      0.13631883	      0.02450668	      0.00199217	     -0.03725984	     -0.10393963	     -0.20570605	     -0.24006059	      0.00000079	     -0.32847694	      0.00000060	     -0.00000086	     85.00764269	     53.50378146	      4.56607430	     -3.05541677	      1.97412180	     33.70808704	    -85.00764269	    -53.50378146	     -4.56607430	      1.40063960	     -2.32950183	      1.26350374	      0.07984291	     -0.00114944	     -0.04917289	      0.01954744	     -0.00125121	      0.03176885	     -0.07984291	      0.00114944	      0.04917289	     -0.00016046	      0.00236721	     -0.00031596	   -931.40113362	   -379.20373201	    323.83539731	     -8.48767414	     22.57448699	      2.23038044	    931.40113362	    379.20373201	   -323.83539731	    137.21704132	    -16.32964932	    375.32792631	   -347.92647321	   -154.37263168	    -95.27825899	      5.05561004	    -12.06645799	      1.10287348	    347.92647321	    154.37263168	     95.27825899	    -42.20572287	      8.53493096	    140.27963080	    100.54751603	      0.09377732	    392.37951885	   1056.49084550
